<?xml version="1.0" encoding="UTF-8" standalone="no"?>
<!-- Created with Inkscape (http://www.inkscape.org/) -->

<svg
   width="230.55118"
   height="230.55118"
   version="1.1"
   id="svg1500"
   inkscape:version="1.2.2 (b0a84865, 2022-12-01)"
   sodipodi:docname="ab_KeyMapUltimate.svg"
   xmlns:inkscape="http://www.inkscape.org/namespaces/inkscape"
   xmlns:sodipodi="http://sodipodi.sourceforge.net/DTD/sodipodi-0.dtd"
   xmlns="http://www.w3.org/2000/svg"
   xmlns:svg="http://www.w3.org/2000/svg">
  <sodipodi:namedview
     id="namedview1502"
     pagecolor="#000000"
     bordercolor="#000000"
     borderopacity="0.25"
     inkscape:showpageshadow="2"
     inkscape:pageopacity="0.34901961"
     inkscape:pagecheckerboard="0"
     inkscape:deskcolor="#2b2b2b"
     inkscape:document-units="mm"
     showgrid="false"
     showguides="false"
     inkscape:zoom="2.6660769"
     inkscape:cx="157.72238"
     inkscape:cy="137.4679"
     inkscape:window-width="1800"
     inkscape:window-height="1097"
     inkscape:window-x="0"
     inkscape:window-y="44"
     inkscape:window-maximized="1"
     inkscape:current-layer="back" />
  <defs
     id="defs1497" />
  <g
     inkscape:groupmode="layer"
     id="back"
     transform="matrix(3.7632128,0,0,3.7631621,0.49809885,0.49914632)"
     style="display:inline">
    <ellipse
       style="fill:#619c9e;fill-opacity:1;stroke-width:0.598588;stroke-linejoin:bevel"
       id="path3723"
       cx="30.499866"
       cy="30.5"
       rx="8.9679499"
       ry="9.262126" />
    <circle
       style="display:inline;fill:#8888bf;fill-opacity:0.898876;stroke:#c2c7c7;stroke-width:0.366586;stroke-linejoin:bevel;stroke-dasharray:none;stroke-opacity:1"
       id="circle6533"
       cx="58.642715"
       cy="1.8986483"
       r="0.95571429"
       transform="matrix(0.99999097,0,0,1.0000046,1.4304798e-4,-1.4378334e-4)" />
    <circle
       style="display:inline;fill:#8888bf;fill-opacity:0.898876;stroke:#c2c7c7;stroke-width:0.366586;stroke-linejoin:bevel;stroke-dasharray:none;stroke-opacity:1"
       id="circle6535"
       cx="2.0976067"
       cy="1.8986483"
       r="0.95571429"
       transform="matrix(0.99999097,0,0,1.0000046,1.4304798e-4,-1.4378334e-4)" />
    <circle
       style="display:inline;fill:#8888bf;fill-opacity:0.898876;stroke:#c2c7c7;stroke-width:0.366586;stroke-linejoin:bevel;stroke-dasharray:none;stroke-opacity:1"
       id="circle6537"
       cx="59.171883"
       cy="58.642715"
       r="0.95571429"
       transform="matrix(0.99999097,0,0,1.0000046,1.4304798e-4,-1.4378334e-4)" />
    <circle
       style="display:inline;fill:#8888bf;fill-opacity:0.898876;stroke:#c2c7c7;stroke-width:0.366586;stroke-linejoin:bevel;stroke-dasharray:none;stroke-opacity:1"
       id="circle6539"
       cx="2.0976067"
       cy="58.642715"
       r="0.95571429"
       transform="matrix(0.99999097,0,0,1.0000046,1.4304798e-4,-1.4378334e-4)" />
    <g
       id="g6547"
       style="display:inline;stroke:#c2c7c7;stroke-width:0.598589;stroke-dasharray:none;stroke-opacity:1"
       transform="matrix(0.99999097,0,0,1.0000046,1.4304798e-4,-1.4378334e-4)">
      <path
         id="path6545"
         style="display:inline;fill:none;fill-opacity:0.55618;stroke:#c2c7c7;stroke-width:0.598589;stroke-linejoin:bevel;stroke-dasharray:none;stroke-opacity:1"
         d="M 4.2498698,1.9311483 C 3.8050353,3.0877442 2.9777252,4.0210723 1.9311483,4.5470093 V 56.582076 c 1.0068994,0.505261 1.8125235,1.38831 2.2691121,2.487187 H 56.935026 c 0.435531,-1.047627 1.189057,-1.900588 2.134237,-2.415874 V 4.8007406 C 57.944028,4.2353637 57.075639,3.2010089 56.660107,1.9311483 Z"
         sodipodi:nodetypes="ccccccccc" />
    </g>
    <rect
       style="display:inline;fill:#797986;fill-opacity:0;stroke:#c2c7c7;stroke-width:0.265;stroke-linejoin:bevel;stroke-dasharray:none;stroke-opacity:1"
       id="rect6551"
       width="61"
       height="61"
       x="0"
       y="0"
       transform="matrix(0.99999097,0,0,1.0000046,1.4304798e-4,-1.4378334e-4)" />
  </g>
  <g
     inkscape:groupmode="layer"
     id="front"
     transform="matrix(3.7631788,0,0,3.7631794,0.49863717,0.49860524)"
     style="display:inline">
    <g
       id="logo"
       transform="matrix(1.060467,0,0,1.060467,-0.91520031,-12.017836)"
       style="display:inline;stroke-width:0.249497">
      <g
         aria-label="KeyMap"
         id="g539"
         style="font-style:italic;font-family:'Bodoni 72 Oldstyle';-inkscape-font-specification:'Bodoni 72 Oldstyle Italic';fill:#82e4f8;stroke-width:0.249497;stroke-linejoin:bevel">
        <path
           d="m 15.692337,14.957548 q 0,0.108 -0.36,0.108 -0.396,0 -0.792,0.264 -0.288,0.192 -1.536,1.212 l -0.912,0.744 q -0.288,0.24 -0.588,0.432 -0.516,0.336 -0.516,0.456 0,0 0.036,0.108 l 0.06,0.18 1.2,3.744 q 0.168,0.54 0.276,0.648 0.12,0.108 0.492,0.108 h 0.096 q 0.108,0 0.24,-0.012 0.12,0 0.12,0 0.132,0 0.132,0.096 0,0.144 -0.444,0.144 0.024,0 -0.432,-0.012 -0.444,-0.012 -0.828,-0.012 h -0.348 l -0.936,0.012 q -0.3,0 -0.3,-0.108 0,-0.12 0.168,-0.12 0.144,0 0.252,0.012 h 0.18 q 0.288,0 0.288,-0.204 -0.036,-0.144 -0.156,-0.576 l -0.924,-3.06 q -0.144,-0.492 -0.2519997,-0.492 -0.06,0 -0.192,0.348 l -1.128,2.868 q -0.312,0.792 -0.312,0.9 0,0.228 0.348,0.228 h 0.108 q 0.096,0 0.216,-0.012 0.12,0 0.132,0 0.336,0 0.336,0.096 0,0.108 -0.228,0.108 l -0.84,-0.012 -2.364,0.036 q -0.18,0 -0.18,-0.108 0,-0.12 0.168,-0.12 0.072,0 0.216,0.012 0.144,0.012 0.216,0.012 0.384,0 0.504,-0.108 0.06,-0.048 0.132,-0.192 0.12,-0.228 0.444,-1.044 l 2.184,-5.484 q 0.216,-0.54 0.3359997,-0.9 0,-0.24 -0.5279997,-0.228 -0.516,0.012 -0.516,-0.108 0,-0.096 0.48,-0.096 l 1.1999997,0.012 1.128,-0.012 q 0.456,0 0.456,0.096 0,0.096 -0.36,0.108 -0.3,0.012 -0.444,0.048 -0.252,0.072 -0.324,0.264 l -0.252,0.684 -0.768,2.052 q -0.048,0.12 -0.096,0.264 0,0.072 0.06,0.072 0.036,0 0.096,-0.06 0.096,-0.108 0.264,-0.18 l 0.84,-0.588 0.396,-0.312 1.044,-0.852 q 0.828,-0.672 1.02,-0.876 0.132,-0.144 0.132,-0.3 0,-0.204 -0.372,-0.204 -0.18,0 -0.276,0.012 h -0.192 q -0.144,0 -0.144,-0.084 0,-0.144 0.228,-0.144 h 0.168 q 0.048,0 0.72,0.012 0.672,0.012 1.332,0.012 0.396,0 0.396,0.108 z"
           id="path527"
           style="stroke-width:0.249497" />
        <path
           d="m 18.884318,18.821548 q 0,0.648 -0.696,1.08 -0.696,0.42 -1.764,0.42 -0.384,0 -0.852,-0.06 -0.444,0.924 -0.444,1.716 0,1.068 0.948,1.068 0.732,0 1.428,-0.768 0.156,-0.168 0.204,-0.168 0.06,0 0.06,0.06 0,0.276 -0.564,0.684 -0.648,0.468 -1.344,0.468 -0.78,0 -1.284,-0.456 -0.504,-0.456 -0.504,-1.152 0,-1.344 1.464,-2.604 1.284,-1.104 2.292,-1.104 1.056,0 1.056,0.816 z m -0.852,-0.204 q 0,-0.372 -0.372,-0.372 -0.384,0 -0.756,0.288 -0.672,0.528 -1.236,1.572 0.144,0.012 0.324,0.012 0.672,0 1.308,-0.408 0.732,-0.456 0.732,-1.092 z"
           id="path529"
           style="stroke-width:0.249497" />
        <path
           d="m 24.992308,18.389548 q 0,0.42 -0.408,0.42 -0.192,0 -0.276,-0.228 -0.024,-0.048 -0.06,-0.048 -0.12,0 -0.516,0.648 l -1.236,2.016 q -0.072,0.132 -1.692,2.592 -0.84,1.284 -1.74,2.016 -0.528,0.432 -1.044,0.432 -0.54,0 -0.54,-0.396 0,-0.204 0.144,-0.336 0.144,-0.132 0.36,-0.132 0.156,0 0.204,0.048 0.036,0.048 0.048,0.288 0.012,0.18 0.168,0.18 0.216,0 0.66,-0.384 0.456,-0.384 0.852,-0.9 0.6,-0.78 0.6,-1.356 0,-0.168 -0.012,-0.3 v -0.288 l -0.024,-3.456 q 0,-0.828 -0.36,-0.828 -0.432,0 -0.828,0.924 -0.144,0.336 -0.24,0.336 -0.096,0 -0.096,-0.108 0,-0.24 0.36,-0.78 0.54,-0.804 1.272,-0.804 0.54,0 0.684,0.36 0.108,0.276 0.108,0.924 v 0.324 l -0.036,2.136 q 0,0.444 0.024,0.888 l 0.192,-0.288 q 0.12,-0.216 0.384,-0.648 l 0.384,-0.588 1.032,-1.704 q 0.588,-0.96 0.756,-1.164 0.18,-0.204 0.456,-0.204 0.42,0 0.42,0.408 z"
           id="path531"
           style="stroke-width:0.249497" />
        <path
           d="m 35.504299,14.933548 q 0,0.168 -0.144,0.168 -0.048,-0.012 -0.156,-0.036 -0.048,-0.012 -0.12,-0.012 -0.072,0 -0.12,0.012 h -0.252 q -0.048,-0.012 -0.132,-0.012 -0.144,0 -0.228,0.168 -0.228,0.468 -0.444,1.032 l -2.244,5.844 q -0.024,0.084 -0.096,0.264 0,0.024 -0.036,0.12 -0.024,0.084 -0.096,0.264 -0.048,0.048 -0.048,0.084 0,0.144 0.312,0.144 h 0.168 l 0.288,0.012 0.24,-0.012 q 0.036,0.012 0.036,0.06 0,0.156 -0.18,0.144 l -0.336,-0.024 -2.568,0.024 q -0.12,0 -0.12,-0.072 0,-0.132 0.324,-0.132 0.336,0 0.54,-0.06 0.096,-0.036 0.204,-0.276 0.3,-0.756 0.6,-1.512 l 2.352,-5.94 q -0.012,0.012 -1.188,1.752 l -3.972,5.844 q -0.228,0.312 -0.3,0.312 -0.096,0 -0.096,-0.192 l 0.012,-0.132 0.012,-0.372 0.324,-6.096 q 0.024,-0.456 0.024,-0.588 0,-0.276 -0.048,-0.276 -0.024,0.024 -0.06,0.12 -0.072,0.24 -0.204,0.588 l -2.4,6.54 q -0.024,0.072 -0.024,0.108 0,0.144 0.12,0.18 0.12,0.036 0.588,0.012 l 0.216,-0.012 q 0.084,0 0.084,0.072 0,0.132 -0.156,0.132 -0.132,0 -0.216,-0.012 l -0.768,-0.012 q -0.852,-0.012 -1.26,0.012 -0.072,0.012 -0.168,0.012 -0.12,0 -0.12,-0.084 0,-0.132 0.18,-0.132 0.06,0 0.132,0.012 0.072,0.012 0.384,0.012 0.408,0 0.504,-0.108 0.108,-0.12 0.372,-0.816 l 2.424,-6.48 q 0.036,-0.12 0.096,-0.276 0.036,-0.048 0.06,-0.096 0,-0.048 -0.144,-0.096 -0.132,-0.06 -0.264,-0.06 -0.192,0.012 -0.684,0.024 h -0.048 q -0.084,0 -0.084,-0.132 0,-0.12 0.132,-0.12 0.084,0 0.156,0.012 0.156,0.024 1.212,0.024 0.924,0 0.984,-0.012 h 0.06 q 0.072,0 0.072,0.108 0,0.18 -0.024,0.66 l -0.276,5.448 q 0.048,-0.084 0.276,-0.396 l 0.288,-0.396 3.624,-5.412 h 0.9 l 1.38,-0.012 q 0.144,0 0.144,0.084 z"
           id="path533"
           style="stroke-width:0.249497" />
        <path
           d="m 39.596288,18.053548 q 0,0.036 -0.096,0.252 l -1.584,3.6 q -0.228,0.516 -0.228,0.792 0,0.312 0.312,0.312 0.468,0 0.936,-0.636 0.096,-0.132 0.144,-0.132 0.048,0 0.048,0.048 0,0.132 -0.264,0.42 -0.528,0.564 -1.26,0.564 -0.372,0 -0.612,-0.18 -0.228,-0.18 -0.228,-0.468 0,-0.18 0.084,-0.42 -0.756,1.116 -1.752,1.116 -0.624,0 -1.02,-0.396 -0.396,-0.408 -0.396,-1.032 0,-0.684 0.456,-1.5 0.456,-0.816 1.212,-1.488 1.032,-0.912 1.896,-0.912 0.9,0 1.008,0.864 l 0.3,-0.636 q 0.096,-0.192 0.168,-0.192 0.024,0 0.144,0.024 0.12,0.024 0.168,0.024 0.264,0 0.408,-0.072 0.048,-0.036 0.084,-0.036 0.072,0 0.072,0.084 z m -1.512,1.02 q 0,-0.372 -0.228,-0.6 -0.216,-0.228 -0.564,-0.228 -0.6,0 -1.152,0.708 -0.636,0.804 -1.02,1.704 -0.384,0.888 -0.384,1.56 0,0.816 0.672,0.816 0.384,0 0.828,-0.42 0.456,-0.42 0.756,-1.056 l 0.936,-2.016 q 0.156,-0.336 0.156,-0.468 z"
           id="path535"
           style="stroke-width:0.249497" />
        <path
           d="m 45.188282,19.397548 q 0,1.392 -1.14,2.652 -1.14,1.248 -2.412,1.248 -0.816,0 -1.104,-0.732 l -1.008,2.484 q -0.096,0.228 -0.132,0.372 -0.108,0.3 -0.24,0.528 0.876,0.036 0.876,0.12 0,0.096 -0.3,0.096 -0.264,0 -0.648,-0.024 l -0.36,-0.024 q 0.012,0 -0.216,0.012 -0.264,0.012 -0.516,0.024 l -0.48,0.012 q -0.252,0.012 -0.252,-0.096 0,-0.12 0.336,-0.132 0.444,-0.024 0.552,-0.108 0.108,-0.084 0.312,-0.564 l 2.688,-6.456 q 0.204,-0.492 0.204,-0.516 0,-0.096 -0.144,-0.096 h -0.12 q -0.06,0.012 -0.192,0.012 -0.216,0 -0.216,-0.096 0,-0.084 0.144,-0.084 h 0.192 q 0.96,0 1.248,-0.072 0.096,-0.024 0.12,-0.024 0.072,0 0.072,0.072 0,0.072 -0.336,0.816 0.552,-0.492 0.876,-0.66 0.336,-0.18 0.732,-0.18 0.636,0 1.044,0.396 0.42,0.396 0.42,1.02 z m -1.02,-0.42 q 0,-0.708 -0.636,-0.708 -0.624,0 -1.272,0.744 -0.504,0.576 -0.996,1.812 l -0.396,0.984 q -0.132,0.324 -0.132,0.48 0,0.312 0.24,0.54 0.24,0.228 0.576,0.228 0.972,0 1.848,-1.632 0.768,-1.428 0.768,-2.448 z"
           id="path537"
           style="stroke-width:0.249497" />
      </g>
      <path
         style="fill:#82e4f8;fill-opacity:1;stroke:#126e74;stroke-width:0.207456;stroke-linejoin:bevel;stroke-dasharray:none;stroke-opacity:1"
         d="M 17.616758,24.495011 H 5.0404896"
         id="path541" />
      <path
         style="fill:#82e4f8;fill-opacity:1;stroke:#126e74;stroke-width:0.207456;stroke-linejoin:bevel;stroke-dasharray:none;stroke-opacity:1"
         d="M 37.494168,24.495011 H 21.753692"
         id="path543" />
      <path
         style="fill:#82e4f8;fill-opacity:1;stroke:#126e74;stroke-width:0.209342;stroke-linejoin:bevel;stroke-dasharray:none;stroke-opacity:1"
         d="M 54.207369,24.495011 H 40.854494"
         id="path545" />
      <path
         style="fill:#82e4f8;fill-opacity:1;stroke:#126e74;stroke-width:0.311183;stroke-linejoin:bevel;stroke-dasharray:none;stroke-opacity:1"
         d="M 16.57711,26.617323 H 5.0404899"
         id="path547" />
      <path
         style="fill:#82e4f8;fill-opacity:1;stroke:#126e74;stroke-width:0.311183;stroke-linejoin:bevel;stroke-dasharray:none;stroke-opacity:1"
         d="M 36.617963,26.617322 H 19.869093"
         id="path549" />
      <path
         style="fill:#82e4f8;fill-opacity:1;stroke:#126e74;stroke-width:0.311183;stroke-linejoin:bevel;stroke-dasharray:none;stroke-opacity:1"
         d="M 54.207367,26.617321 H 40.854492"
         id="path551" />
      <path
         style="fill:#82e4f8;fill-opacity:1;stroke:#126e74;stroke-width:0.117166;stroke-linejoin:bevel;stroke-dasharray:none;stroke-opacity:1"
         d="M 54.207369,22.93006 H 44.61278"
         id="path553" />
      <path
         style="fill:#82e4f8;fill-opacity:1;stroke:#126e74;stroke-width:0.0859475;stroke-linejoin:bevel;stroke-dasharray:none;stroke-opacity:1"
         d="M 54.207369,21.729498 H 45.590161"
         id="path555" />
      <path
         style="fill:#82e4f8;fill-opacity:1;stroke:#126e74;stroke-width:0.0859475;stroke-linejoin:bevel;stroke-dasharray:none;stroke-opacity:1"
         d="M 54.207369,20.359307 H 46.127456"
         id="path557" />
      <g
         id="g575"
         transform="translate(18.667766,-17.500557)"
         style="stroke-width:0.249497">
        <g
           aria-label="a&amp;b"
           id="g565"
           style="font-style:italic;font-size:2.72519px;font-family:'Bodoni 72 Oldstyle';-inkscape-font-specification:'Bodoni 72 Oldstyle Italic';fill:#82e4f8;stroke-width:0.249497;stroke-linejoin:bevel">
          <path
             d="m 25.470205,32.629745 q 0,0.0082 -0.0218,0.05723 l -0.359725,0.817557 q -0.05178,0.117183 -0.05178,0.179863 0,0.07086 0.07086,0.07086 0.106282,0 0.212565,-0.144435 0.0218,-0.02998 0.0327,-0.02998 0.0109,0 0.0109,0.0109 0,0.02998 -0.05995,0.09538 -0.119909,0.128084 -0.286145,0.128084 -0.08448,0 -0.138985,-0.04088 -0.05178,-0.04088 -0.05178,-0.106282 0,-0.04088 0.01908,-0.09538 -0.171687,0.253443 -0.397878,0.253443 -0.14171,0 -0.231641,-0.08993 -0.08993,-0.09266 -0.08993,-0.234366 0,-0.155336 0.103557,-0.340649 0.103557,-0.185313 0.275244,-0.337923 0.234366,-0.207115 0.43058,-0.207115 0.204389,0 0.228916,0.196214 l 0.06813,-0.144435 q 0.0218,-0.0436 0.03815,-0.0436 0.0055,0 0.0327,0.0055 0.02725,0.0055 0.03815,0.0055 0.05996,0 0.09266,-0.01635 0.0109,-0.0082 0.01908,-0.0082 0.01635,0 0.01635,0.01908 z m -0.343374,0.231641 q 0,-0.08448 -0.05178,-0.136259 -0.04905,-0.05178 -0.128084,-0.05178 -0.13626,0 -0.261618,0.160786 -0.144436,0.182588 -0.231642,0.386977 -0.08721,0.201664 -0.08721,0.354275 0,0.185313 0.152611,0.185313 0.08721,0 0.188038,-0.09538 0.103557,-0.09538 0.171687,-0.239816 l 0.212565,-0.457832 q 0.03543,-0.07631 0.03543,-0.106283 z"
             id="path559"
             style="stroke-width:0.249497" />
          <path
             d="m 27.320608,32.98947 q 0,0.111733 -0.111733,0.111733 -0.08721,0 -0.08993,-0.08993 -0.0027,-0.07903 -0.05178,-0.07903 -0.06813,0 -0.196213,0.166237 -0.109008,0.14171 -0.174413,0.269794 0.07903,0.198939 0.155336,0.283419 0.07903,0.08176 0.182588,0.08176 0.133534,0 0.21529,-0.128084 0.02453,-0.03815 0.04088,-0.03815 0.01363,0 0.01363,0.01362 0,0.0327 -0.08993,0.119909 -0.128084,0.125359 -0.297046,0.125359 -0.13626,0 -0.218015,-0.05178 -0.08176,-0.05178 -0.163512,-0.193489 -0.193488,0.247993 -0.485084,0.247993 -0.239816,0 -0.376076,-0.119909 -0.136259,-0.122633 -0.136259,-0.335198 0,-0.305221 0.318847,-0.487809 0.103557,-0.05995 0.354275,-0.168962 -0.0654,-0.256168 -0.0654,-0.359725 0,-0.212565 0.144435,-0.351549 0.14716,-0.138985 0.370626,-0.138985 0.168962,0 0.280695,0.08993 0.111732,0.08993 0.111732,0.226191 0,0.168962 -0.166236,0.280695 -0.07903,0.05178 -0.386977,0.196213 -0.01363,0.0082 -0.04633,0.0218 0.02998,0.117183 0.109007,0.332473 0.02998,0.07903 0.103557,0.294321 0.158061,-0.261619 0.261619,-0.357 0.106282,-0.09811 0.22619,-0.09811 0.07358,0 0.119909,0.03815 0.04633,0.03815 0.04633,0.09811 z M 26.8546,32.169188 q 0,-0.258893 -0.21529,-0.258893 -0.125358,0 -0.198938,0.09538 -0.07358,0.09266 -0.07358,0.253442 0,0.158061 0.07086,0.370626 0.0109,-0.0082 0.04905,-0.02453 0.204389,-0.09811 0.277969,-0.185312 0.08993,-0.109008 0.08993,-0.250718 z m -0.351549,1.357145 q -0.14171,-0.297046 -0.280695,-0.771229 l -0.04633,0.02453 q -0.193488,0.103557 -0.264343,0.179862 -0.138985,0.152611 -0.138985,0.370626 0,0.185313 0.09811,0.302496 0.09811,0.117183 0.250717,0.117183 0.253443,0 0.381527,-0.223465 z"
             id="path561"
             style="stroke-width:0.249497" />
          <path
             d="m 28.688653,32.962218 q 0,0.305222 -0.286145,0.585916 -0.28342,0.27797 -0.594092,0.27797 -0.144435,0 -0.245267,-0.07631 -0.09811,-0.07903 -0.09811,-0.188038 0,-0.06268 0.08176,-0.250717 l 0.575015,-1.313542 q 0.0082,-0.02998 0.0218,-0.04905 0.01363,-0.0218 0.01363,-0.02453 0,-0.02998 -0.149886,-0.02453 -0.0218,0 -0.0218,-0.01635 0,-0.01908 0.06813,-0.01908 0.22619,0 0.253442,-0.0027 l 0.05723,-0.0055 h 0.01908 q 0.0218,0 0.0218,0.01635 0,0.0082 -0.0082,0.0218 -0.02725,0.04088 -0.05723,0.114458 l -0.258893,0.634969 q -0.02725,0.0654 -0.07358,0.152611 0.01635,-0.01635 0.02725,-0.02453 l 0.07085,-0.0654 q 0.09811,-0.08993 0.250718,-0.08993 0.144435,0 0.237091,0.09811 0.09538,0.09811 0.09538,0.247992 z m -0.220741,-0.109007 q 0,-0.188038 -0.141709,-0.188038 -0.272519,0 -0.495985,0.542312 l -0.0654,0.158061 q -0.09538,0.231642 -0.09538,0.310672 0,0.109008 0.144435,0.109008 0.267068,0 0.482358,-0.411504 0.171687,-0.327023 0.171687,-0.520511 z"
             id="path563"
             style="stroke-width:0.249497" />
        </g>
        <path
           style="fill:#82e4f8;fill-opacity:1;stroke:#126e74;stroke-width:0.0859475;stroke-linejoin:bevel;stroke-dasharray:none;stroke-opacity:1"
           d="M 35.539603,33.602335 H 28.873051"
           id="path567" />
        <path
           style="fill:#82e4f8;fill-opacity:1;stroke:#126e74;stroke-width:0.0859475;stroke-linejoin:bevel;stroke-dasharray:none;stroke-opacity:1"
           d="M 35.539603,32.84231 H 28.873051"
           id="path569" />
        <path
           style="fill:#82e4f8;fill-opacity:1;stroke:#126e74;stroke-width:0.0859475;stroke-linejoin:bevel;stroke-dasharray:none;stroke-opacity:1"
           d="m 23.942289,33.602335 h -1.49894"
           id="path571" />
        <path
           style="fill:#82e4f8;fill-opacity:1;stroke:#126e74;stroke-width:0.0859475;stroke-linejoin:bevel;stroke-dasharray:none;stroke-opacity:1"
           d="m 23.942289,32.84231 h -1.49894"
           id="path573" />
      </g>
    </g>
    <rect
       style="display:inline;fill:#797986;fill-opacity:0;stroke:#c2c7c7;stroke-width:0.265;stroke-linejoin:bevel;stroke-dasharray:none;stroke-opacity:1"
       id="rect579"
       width="61"
       height="61"
       x="0"
       y="0" />
    <g
       id="g583"
       style="display:inline;stroke:#c2c7c7;stroke-width:0.598589;stroke-dasharray:none;stroke-opacity:1">
      <path
         id="path581"
         style="display:inline;fill:none;fill-opacity:0.55618;stroke:#c2c7c7;stroke-width:0.598589;stroke-linejoin:bevel;stroke-dasharray:none;stroke-opacity:1"
         d="M 4.2498698,1.9311483 C 3.8050353,3.0877442 2.9777252,4.0210723 1.9311483,4.5470093 V 56.582076 c 1.0068994,0.505261 1.8125235,1.38831 2.2691121,2.487187 H 56.935026 c 0.435531,-1.047627 1.189057,-1.900588 2.134237,-2.415874 V 4.8007406 C 57.944028,4.2353637 57.075639,3.2010089 56.660107,1.9311483 Z"
         sodipodi:nodetypes="ccccccccc" />
    </g>
    <circle
       style="fill:#8888bf;fill-opacity:0.898876;stroke:#c2c7c7;stroke-width:0.366586;stroke-linejoin:bevel;stroke-dasharray:none;stroke-opacity:1"
       id="circle585"
       cx="58.642715"
       cy="1.8986483"
       r="0.95571429" />
    <circle
       style="fill:#8888bf;fill-opacity:0.898876;stroke:#c2c7c7;stroke-width:0.366586;stroke-linejoin:bevel;stroke-dasharray:none;stroke-opacity:1"
       id="circle587"
       cx="2.0976067"
       cy="1.8986483"
       r="0.95571429" />
    <circle
       style="fill:#8888bf;fill-opacity:0.898876;stroke:#c2c7c7;stroke-width:0.366586;stroke-linejoin:bevel;stroke-dasharray:none;stroke-opacity:1"
       id="circle589"
       cx="59.171883"
       cy="58.642715"
       r="0.95571429" />
    <circle
       style="fill:#8888bf;fill-opacity:0.898876;stroke:#c2c7c7;stroke-width:0.366586;stroke-linejoin:bevel;stroke-dasharray:none;stroke-opacity:1"
       id="circle591"
       cx="2.0976067"
       cy="58.642715"
       r="0.95571429" />
  </g>
</svg>
