<?xml version="1.0" encoding="UTF-8" standalone="no"?>
<!-- Generator: Adobe Illustrator 16.0.0, SVG Export Plug-In . SVG Version: 6.00 Build 0)  -->

<svg
   version="1.1"
   id="svg19531"
   inkscape:version="1.2.2 (b0a84865, 2022-12-01)"
   sodipodi:docname="Bulk Freighter_sog.svg"
   x="0px"
   y="0px"
   width="595.275px"
   height="841.89px"
   viewBox="0 0 595.275 841.89"
   enable-background="new 0 0 595.275 841.89"
   xml:space="preserve"
   xmlns:inkscape="http://www.inkscape.org/namespaces/inkscape"
   xmlns:sodipodi="http://sodipodi.sourceforge.net/DTD/sodipodi-0.dtd"
   xmlns="http://www.w3.org/2000/svg"
   xmlns:svg="http://www.w3.org/2000/svg"><defs
   id="defs475" />
<sodipodi:namedview
   showguides="false"
   inkscape:cy="444.52685"
   inkscape:cx="308.53269"
   inkscape:zoom="6.9230914"
   pagecolor="#000000"
   bordercolor="#000000"
   borderopacity="0.25"
   showgrid="false"
   id="namedview19533"
   inkscape:deskcolor="#d1d1d1"
   inkscape:showpageshadow="2"
   inkscape:pageopacity="0"
   inkscape:pagecheckerboard="0"
   inkscape:window-maximized="0"
   inkscape:window-height="1097"
   inkscape:window-x="0"
   inkscape:window-width="1800"
   inkscape:document-units="mm"
   inkscape:current-layer="svg19531"
   inkscape:window-y="44">
	</sodipodi:namedview>
<g
   id="g13"
   transform="matrix(-1,0,0,1,599.916,0)">
	<rect
   x="354.61801"
   y="413.047"
   fill="#565656"
   width="3"
   height="2.0409999"
   id="rect3" />
	<path
   fill="#444444"
   d="m 358.607,412.082 c -0.114,-0.033 -0.232,-0.055 -0.354,-0.055 -0.874,0 -1.583,0.896 -1.583,2 0,1.104 0.709,2 1.583,2 0.122,0 0.24,-0.021 0.354,-0.055 z"
   id="path5" />
	<rect
   x="354.61801"
   y="413.28201"
   fill="#494949"
   width="3"
   height="1.572"
   id="rect7" />
	<path
   fill="#515151"
   d="m 358.607,412.279 c -0.109,-0.029 -0.224,-0.049 -0.341,-0.049 -0.839,0 -1.52,0.805 -1.52,1.797 0,0.992 0.681,1.797 1.52,1.797 0.117,0 0.231,-0.02 0.341,-0.05 z"
   id="path9" />
	<path
   fill="#5b5b5b"
   d="m 358.607,412.461 c -0.104,-0.026 -0.212,-0.044 -0.323,-0.044 -0.797,0 -1.443,0.721 -1.443,1.609 0,0.888 0.646,1.609 1.443,1.609 0.111,0 0.22,-0.018 0.323,-0.044 z"
   id="path11" />
</g>
<g
   id="g25"
   transform="matrix(-1,0,0,1,599.916,0)">
	<rect
   x="354.61801"
   y="418.651"
   fill="#565656"
   width="3"
   height="2.0409999"
   id="rect15" />
	<path
   fill="#444444"
   d="m 358.607,417.686 c -0.114,-0.033 -0.232,-0.055 -0.354,-0.055 -0.874,0 -1.583,0.896 -1.583,2 0,1.104 0.709,2 1.583,2 0.122,0 0.24,-0.021 0.354,-0.055 z"
   id="path17" />
	<rect
   x="354.61801"
   y="418.88599"
   fill="#494949"
   width="3"
   height="1.572"
   id="rect19" />
	<path
   fill="#515151"
   d="m 358.607,417.883 c -0.109,-0.029 -0.224,-0.049 -0.341,-0.049 -0.839,0 -1.52,0.805 -1.52,1.797 0,0.992 0.681,1.797 1.52,1.797 0.117,0 0.231,-0.02 0.341,-0.05 z"
   id="path21" />
	<path
   fill="#5b5b5b"
   d="m 358.607,418.065 c -0.104,-0.026 -0.212,-0.044 -0.323,-0.044 -0.797,0 -1.443,0.721 -1.443,1.609 0,0.888 0.646,1.609 1.443,1.609 0.111,0 0.22,-0.018 0.323,-0.044 z"
   id="path23" />
</g>
<g
   id="g37"
   transform="matrix(-1,0,0,1,599.916,0)">
	<rect
   x="354.61801"
   y="424.255"
   fill="#565656"
   width="3"
   height="2.0409999"
   id="rect27" />
	<path
   fill="#444444"
   d="m 358.607,423.29 c -0.114,-0.033 -0.232,-0.055 -0.354,-0.055 -0.874,0 -1.583,0.896 -1.583,2 0,1.104 0.709,2 1.583,2 0.122,0 0.24,-0.021 0.354,-0.055 z"
   id="path29" />
	<rect
   x="354.61801"
   y="424.48999"
   fill="#494949"
   width="3"
   height="1.572"
   id="rect31" />
	<path
   fill="#515151"
   d="m 358.607,423.488 c -0.109,-0.03 -0.224,-0.05 -0.341,-0.05 -0.839,0 -1.52,0.805 -1.52,1.797 0,0.992 0.681,1.797 1.52,1.797 0.117,0 0.231,-0.02 0.341,-0.05 z"
   id="path33" />
	<path
   fill="#5b5b5b"
   d="m 358.607,423.669 c -0.104,-0.026 -0.212,-0.044 -0.323,-0.044 -0.797,0 -1.443,0.721 -1.443,1.609 0,0.888 0.646,1.609 1.443,1.609 0.111,0 0.22,-0.018 0.323,-0.044 z"
   id="path35" />
</g>
<g
   id="g49"
   transform="matrix(-1,0,0,1,599.916,0)">
	<rect
   x="354.61801"
   y="429.85999"
   fill="#565656"
   width="3"
   height="2.0409999"
   id="rect39" />
	<path
   fill="#444444"
   d="m 358.607,428.894 c -0.114,-0.033 -0.232,-0.055 -0.354,-0.055 -0.874,0 -1.583,0.896 -1.583,2 0,1.104 0.709,2 1.583,2 0.122,0 0.24,-0.021 0.354,-0.055 z"
   id="path41" />
	<rect
   x="354.61801"
   y="430.09399"
   fill="#494949"
   width="3"
   height="1.572"
   id="rect43" />
	<path
   fill="#515151"
   d="m 358.607,429.092 c -0.109,-0.03 -0.224,-0.05 -0.341,-0.05 -0.839,0 -1.52,0.805 -1.52,1.797 0,0.992 0.681,1.797 1.52,1.797 0.117,0 0.231,-0.02 0.341,-0.05 z"
   id="path45" />
	<path
   fill="#5b5b5b"
   d="m 358.607,429.274 c -0.104,-0.026 -0.212,-0.044 -0.323,-0.044 -0.797,0 -1.443,0.721 -1.443,1.609 0,0.888 0.646,1.609 1.443,1.609 0.111,0 0.22,-0.018 0.323,-0.044 z"
   id="path47" />
</g>
<g
   id="thrust"
   inkscape:label=""
   transform="matrix(-1,0,0,1,599.916,0)">
	<g
   id="g55">
		<polygon
   opacity="0.6"
   fill="#00d0e7"
   points="363.45,414.027 358.591,415.877 358.591,412.176 "
   id="polygon51" />
		<polygon
   opacity="0.4"
   fill="#80f3ff"
   points="362.294,414.035 358.669,415.706 358.669,412.364 "
   id="polygon53" />
	</g>
	<g
   id="g61">
		<polygon
   opacity="0.6"
   fill="#00d0e7"
   points="363.45,419.631 358.591,421.482 358.591,417.78 "
   id="polygon57" />
		<polygon
   opacity="0.4"
   fill="#80f3ff"
   points="362.294,419.639 358.669,421.31 358.669,417.968 "
   id="polygon59" />
	</g>
	<g
   id="g67">
		<polygon
   opacity="0.6"
   fill="#00d0e7"
   points="363.45,425.235 358.591,427.085 358.591,423.384 "
   id="polygon63" />
		<polygon
   opacity="0.4"
   fill="#80f3ff"
   points="362.294,425.243 358.669,426.914 358.669,423.572 "
   id="polygon65" />
	</g>
	<g
   id="g73">
		<polygon
   opacity="0.6"
   fill="#00d0e7"
   points="363.45,430.839 358.591,432.69 358.591,428.989 "
   id="polygon69" />
		<polygon
   opacity="0.4"
   fill="#80f3ff"
   points="362.294,430.847 358.669,432.518 358.669,429.176 "
   id="polygon71" />
	</g>
</g>
<rect
   x="-354.27899"
   y="420.94501"
   fill="#a7a7a7"
   width="99.021004"
   height="2.9790001"
   id="rect76"
   transform="scale(-1,1)" />
<rect
   x="-255.29701"
   y="410.94299"
   fill="#a7a7a7"
   width="9.9989996"
   height="22.979"
   id="rect78"
   transform="scale(-1,1)" />
<rect
   x="-254.92"
   y="411.29599"
   fill="#b8b8b8"
   width="9.2449999"
   height="22.274"
   id="rect80"
   transform="scale(-1,1)" />
<ellipse
   fill="#a7a7a7"
   cx="-357.841"
   cy="422.39801"
   rx="5.6090002"
   ry="4.2670002"
   id="ellipse82"
   transform="scale(-1,1)" />
<ellipse
   fill="#b8b8b8"
   cx="-357.841"
   cy="422.39801"
   rx="5.1680002"
   ry="3.8440001"
   id="ellipse84"
   transform="scale(-1,1)" />
<path
   fill="#c7c7c7"
   d="m 353.133,422.398 c 0,1.89 2.108,3.415 4.708,3.415 2.6,0 4.708,-1.525 4.708,-3.415 0,-1.887 -2.108,-3.417 -4.708,-3.417 -2.6,0 -4.708,1.53 -4.708,3.417 z"
   id="path86" />
<rect
   x="-353.94998"
   y="421.32001"
   fill="#b8b8b8"
   width="100.608"
   height="2.2290001"
   id="rect88"
   transform="scale(-1,1)" />
<rect
   x="-356.94501"
   y="421.75699"
   fill="#c7c7c7"
   width="103.437"
   height="1.354"
   id="rect90"
   transform="scale(-1,1)" />
<rect
   x="-254.56099"
   y="411.702"
   fill="#c7c7c7"
   width="8.526"
   height="21.461"
   id="rect92"
   transform="scale(-1,1)" />
<g
   id="g122"
   transform="matrix(-1,0,0,1,599.916,0)">
	<g
   id="g106">
		<g
   id="g98">
			<path
   fill="#b8b8b8"
   d="m 345.735,413.175 c 0,-0.55 0.45,-1 1,-1 h 5.719 c 0.55,0 0.682,0.318 0.293,0.707 l -6.305,6.305 c -0.389,0.389 -0.707,0.257 -0.707,-0.293 z"
   id="path94" />
			<path
   fill="#cfcfcf"
   d="m 345.993,413.321 c 0,-0.488 0.399,-0.888 0.888,-0.888 h 5.076 c 0.488,0 0.605,0.283 0.261,0.628 l -5.597,5.597 c -0.346,0.345 -0.628,0.228 -0.628,-0.26 v -5.077 z"
   id="path96" />
		</g>
		<g
   id="g104">
			<path
   fill="#b8b8b8"
   d="m 353.532,419.628 c 0,0.55 -0.45,1 -1,1 h -5.719 c -0.55,0 -0.682,-0.318 -0.293,-0.707 l 6.305,-6.305 c 0.389,-0.389 0.707,-0.257 0.707,0.293 z"
   id="path100" />
			<path
   fill="#cfcfcf"
   d="m 353.274,419.483 c 0,0.488 -0.399,0.888 -0.888,0.888 h -5.076 c -0.488,0 -0.605,-0.282 -0.261,-0.627 l 5.597,-5.597 c 0.346,-0.346 0.628,-0.229 0.628,0.26 v 5.076 z"
   id="path102" />
		</g>
	</g>
	<g
   id="g120">
		<g
   id="g112">
			<path
   fill="#b8b8b8"
   d="m 345.735,431.691 c 0,0.55 0.45,1 1,1 h 5.719 c 0.55,0 0.682,-0.318 0.293,-0.707 l -6.305,-6.305 c -0.389,-0.389 -0.707,-0.257 -0.707,0.293 z"
   id="path108" />
			<path
   fill="#cfcfcf"
   d="m 345.993,431.545 c 0,0.488 0.399,0.888 0.888,0.888 h 5.076 c 0.488,0 0.605,-0.282 0.261,-0.628 l -5.597,-5.596 c -0.346,-0.346 -0.628,-0.229 -0.628,0.26 v 5.076 z"
   id="path110" />
		</g>
		<g
   id="g118">
			<path
   fill="#b8b8b8"
   d="m 353.532,425.238 c 0,-0.55 -0.45,-1 -1,-1 h -5.719 c -0.55,0 -0.682,0.318 -0.293,0.707 l 6.305,6.305 c 0.389,0.389 0.707,0.257 0.707,-0.293 z"
   id="path114" />
			<path
   fill="#cfcfcf"
   d="m 353.274,425.383 c 0,-0.488 -0.399,-0.888 -0.888,-0.888 h -5.076 c -0.488,0 -0.605,0.282 -0.261,0.628 l 5.597,5.596 c 0.346,0.346 0.628,0.229 0.628,-0.26 v -5.076 z"
   id="path116" />
		</g>
	</g>
</g>
<ellipse
   fill="#f7f7f7"
   cx="-357.841"
   cy="422.397"
   rx="3.5320001"
   ry="2.5009999"
   id="ellipse124"
   transform="scale(-1,1)" />
<g
   id="g180"
   transform="matrix(-1,0,0,1,599.916,0)">
	<path
   fill="#53bce3"
   stroke="#e6e6e6"
   stroke-width="0.15"
   d="m 241.147,420.214 c -0.212,0.058 -0.415,0.13 -0.602,0.223 -0.232,0.116 -0.44,0.256 -0.623,0.418 -0.234,0.207 -0.423,0.445 -0.551,0.71 -0.126,0.26 -0.202,0.538 -0.202,0.832 0,0.287 0.074,0.559 0.193,0.812 0.126,0.268 0.313,0.509 0.548,0.719 0.184,0.163 0.392,0.309 0.626,0.425 0.188,0.096 0.394,0.167 0.608,0.227 l -0.062,0.68 c -0.291,-0.05 -0.566,-0.121 -0.829,-0.208 -0.352,-0.121 -0.672,-0.272 -0.961,-0.45 -0.421,-0.262 -0.766,-0.576 -1.012,-0.937 -0.263,-0.385 -0.422,-0.811 -0.422,-1.267 0,-0.463 0.166,-0.896 0.438,-1.285 0.247,-0.356 0.591,-0.668 1.011,-0.926 0.288,-0.177 0.606,-0.328 0.955,-0.444 0.263,-0.088 0.536,-0.158 0.824,-0.207 z"
   id="path126" />
	<path
   fill="#b8b8b8"
   stroke="#e6e6e6"
   stroke-width="0.15"
   stroke-linecap="round"
   stroke-linejoin="round"
   d="m 241.086,419.536 c 0.319,-0.055 0.646,-0.091 0.989,-0.091 2.328,0 4.216,1.322 4.216,2.953 0,1.634 -1.889,2.952 -4.216,2.952 -0.344,0 -0.672,-0.038 -0.992,-0.091 l 0.062,-0.68 c 0.293,0.079 0.602,0.132 0.93,0.132 1.604,0 2.905,-1.033 2.905,-2.313 0,-1.279 -1.301,-2.315 -2.905,-2.315 -0.326,0 -0.635,0.053 -0.928,0.131"
   id="path128" />
	<line
   fill="none"
   stroke="#e6e6e6"
   stroke-width="0.15"
   x1="237.85899"
   y1="422.39801"
   x2="239.17"
   y2="422.39801"
   id="line130" />
	<path
   fill="none"
   stroke="#e6e6e6"
   stroke-width="0.15"
   d="M 239.17,422.398"
   id="path132" />
	<path
   fill="none"
   stroke="#e6e6e6"
   stroke-width="0.15"
   d="M 237.859,422.398"
   id="path134" />
	<path
   fill="none"
   stroke="#e6e6e6"
   stroke-width="0.15"
   d="M 239.371,421.566"
   id="path136" />
	<path
   fill="none"
   stroke="#e6e6e6"
   stroke-width="0.15"
   d="M 238.296,421.113"
   id="path138" />
	<line
   fill="none"
   stroke="#e6e6e6"
   stroke-width="0.15"
   x1="238.29601"
   y1="421.11301"
   x2="239.371"
   y2="421.56601"
   id="line140" />
	<path
   fill="none"
   stroke="#e6e6e6"
   stroke-width="0.15"
   d="M 239.923,420.856"
   id="path142" />
	<line
   fill="none"
   stroke="#e6e6e6"
   stroke-width="0.15"
   x1="239.30701"
   y1="420.18701"
   x2="239.923"
   y2="420.85599"
   id="line144" />
	<path
   fill="none"
   stroke="#e6e6e6"
   stroke-width="0.15"
   d="M 239.307,420.187"
   id="path146" />
	<path
   fill="none"
   stroke="#e6e6e6"
   stroke-width="0.15"
   d="M 240.545,420.438"
   id="path148" />
	<line
   fill="none"
   stroke="#e6e6e6"
   stroke-width="0.15"
   x1="240.261"
   y1="419.74301"
   x2="240.545"
   y2="420.43799"
   id="line150" />
	<path
   fill="none"
   stroke="#e6e6e6"
   stroke-width="0.15"
   d="M 240.261,419.743"
   id="path152" />
	<path
   fill="none"
   stroke="#e6e6e6"
   stroke-width="0.15"
   d="M 241.086,419.536"
   id="path154" />
	<path
   fill="none"
   stroke="#e6e6e6"
   stroke-width="0.15"
   d="M 241.147,420.214"
   id="path156" />
	<line
   fill="none"
   stroke="#e6e6e6"
   stroke-width="0.15"
   x1="238.28101"
   y1="423.66501"
   x2="239.36301"
   y2="423.20901"
   id="line158" />
	<path
   fill="none"
   stroke="#e6e6e6"
   stroke-width="0.15"
   d="M 239.363,423.209"
   id="path160" />
	<path
   fill="none"
   stroke="#e6e6e6"
   stroke-width="0.15"
   d="M 238.281,423.665"
   id="path162" />
	<line
   fill="none"
   stroke="#e6e6e6"
   stroke-width="0.15"
   x1="239.293"
   y1="424.60101"
   x2="239.911"
   y2="423.92801"
   id="line164" />
	<path
   fill="none"
   stroke="#e6e6e6"
   stroke-width="0.15"
   d="M 239.911,423.928"
   id="path166" />
	<path
   fill="none"
   stroke="#e6e6e6"
   stroke-width="0.15"
   d="M 239.293,424.601"
   id="path168" />
	<line
   fill="none"
   stroke="#e6e6e6"
   stroke-width="0.15"
   x1="240.537"
   y1="424.353"
   x2="240.254"
   y2="425.05099"
   id="line170" />
	<path
   fill="none"
   stroke="#e6e6e6"
   stroke-width="0.15"
   d="M 240.537,424.353"
   id="path172" />
	<path
   fill="none"
   stroke="#e6e6e6"
   stroke-width="0.15"
   d="M 240.254,425.051"
   id="path174" />
	<path
   fill="none"
   stroke="#e6e6e6"
   stroke-width="0.15"
   d="M 241.145,424.58"
   id="path176" />
	<path
   fill="none"
   stroke="#e6e6e6"
   stroke-width="0.15"
   d="M 241.083,425.259"
   id="path178" />
</g>
<ellipse
   fill="#878787"
   cx="-358.06198"
   cy="420.71201"
   rx="0.83399999"
   ry="0.27000001"
   id="ellipse182"
   transform="scale(-1,1)" />
<ellipse
   fill="#878787"
   cx="-358.06198"
   cy="423.974"
   rx="0.83399999"
   ry="0.27000001"
   id="ellipse184"
   transform="scale(-1,1)" />
<g
   id="g232"
   transform="matrix(-1,0,0,1,599.916,0)">
	<g
   id="g210">
		<g
   id="g192">
			<path
   fill="#a7a7a7"
   d="m 281.387,415.434 c 0,2.475 -0.917,4.479 -3.172,4.479 h -24.156 c -2.255,0 -3.172,-2.005 -3.172,-4.479 v 0 c 0,-2.474 0.917,-4.479 3.172,-4.479 h 24.156 c 2.256,0.001 3.172,2.005 3.172,4.479 z"
   id="path186" />
			<path
   fill="#b6b6b6"
   d="m 281.046,415.434 c 0,2.29 -0.896,4.146 -3.101,4.146 h -23.616 c -2.204,0 -3.1,-1.856 -3.1,-4.146 v 0 c 0,-2.289 0.896,-4.146 3.1,-4.146 h 23.616 c 2.205,10e-4 3.101,1.857 3.101,4.146 z"
   id="path188" />
			<path
   fill="#bebebe"
   d="m 280.741,415.434 c 0,1.945 -0.877,3.521 -3.037,3.521 H 254.57 c -2.159,0 -3.037,-1.576 -3.037,-3.521 v 0 c 0,-1.944 0.877,-3.521 3.037,-3.521 h 23.134 c 2.16,10e-4 3.037,1.577 3.037,3.521 z"
   id="path190" />
		</g>
		<g
   id="g208">
			
				<line
   fill="none"
   stroke="#cdcdcd"
   stroke-width="0.25"
   stroke-linecap="round"
   x1="253.31"
   y1="412.38699"
   x2="278.927"
   y2="412.38699"
   id="line194" />
			
				<line
   fill="none"
   stroke="#d2d2d2"
   stroke-width="0.25"
   stroke-linecap="round"
   x1="252.48399"
   y1="413.26199"
   x2="279.75299"
   y2="413.26199"
   id="line196" />
			
				<line
   fill="none"
   stroke="#dcdcdc"
   stroke-width="0.25"
   stroke-linecap="round"
   x1="251.961"
   y1="414.38699"
   x2="280.27701"
   y2="414.38699"
   id="line198" />
			
				<line
   fill="none"
   stroke="#cdcdcd"
   stroke-width="0.25"
   stroke-linecap="round"
   x1="253.31"
   y1="418.48099"
   x2="278.927"
   y2="418.48099"
   id="line200" />
			
				<line
   fill="none"
   stroke="#d2d2d2"
   stroke-width="0.25"
   stroke-linecap="round"
   x1="252.48399"
   y1="417.60599"
   x2="279.75299"
   y2="417.60599"
   id="line202" />
			
				<line
   fill="none"
   stroke="#dcdcdc"
   stroke-width="0.25"
   stroke-linecap="round"
   x1="251.961"
   y1="416.48099"
   x2="280.27701"
   y2="416.48099"
   id="line204" />
			
				<line
   fill="none"
   stroke="#e1e1e1"
   stroke-width="0.25"
   stroke-linecap="round"
   x1="251.67599"
   y1="415.43399"
   x2="280.561"
   y2="415.43399"
   id="line206" />
		</g>
	</g>
	<g
   id="g230">
		<g
   id="g216">
			<polygon
   fill="#929292"
   points="257.978,415.943 257.484,415.58 257.677,414.998 258.29,415 258.477,415.585 "
   id="polygon212" />
			<polygon
   fill="none"
   stroke="#a7a7a7"
   stroke-width="0.5"
   points="257.981,415.421 261.53,421.567 254.433,421.567 "
   id="polygon214" />
		</g>
		<g
   id="g222">
			<polygon
   fill="#929292"
   points="266.135,415.943 265.64,415.58 265.833,414.998 266.447,415 266.633,415.585 "
   id="polygon218" />
			<polygon
   fill="none"
   stroke="#a7a7a7"
   stroke-width="0.5"
   points="266.137,415.421 269.686,421.567 262.589,421.567 "
   id="polygon220" />
		</g>
		<g
   id="g228">
			<polygon
   fill="#929292"
   points="274.291,415.943 273.796,415.58 273.989,414.998 274.603,415 274.789,415.585 "
   id="polygon224" />
			<polygon
   fill="none"
   stroke="#a7a7a7"
   stroke-width="0.5"
   points="274.294,415.421 277.842,421.567 270.745,421.567 "
   id="polygon226" />
		</g>
	</g>
</g>
<g
   id="g280"
   transform="matrix(-1,0,0,1,599.916,0)">
	<g
   id="g258">
		<g
   id="g240">
			<path
   fill="#a7a7a7"
   d="m 281.387,429.435 c 0,-2.475 -0.917,-4.479 -3.172,-4.479 h -24.156 c -2.255,0 -3.172,2.005 -3.172,4.479 v 0 c 0,2.474 0.917,4.479 3.172,4.479 h 24.156 c 2.256,0 3.172,-2.005 3.172,-4.479 z"
   id="path234" />
			<path
   fill="#b6b6b6"
   d="m 281.046,429.435 c 0,-2.29 -0.896,-4.146 -3.101,-4.146 h -23.616 c -2.204,0 -3.1,1.856 -3.1,4.146 v 0 c 0,2.289 0.896,4.146 3.1,4.146 h 23.616 c 2.205,0 3.101,-1.857 3.101,-4.146 z"
   id="path236" />
			<path
   fill="#bebebe"
   d="m 280.741,429.435 c 0,-1.945 -0.877,-3.521 -3.037,-3.521 H 254.57 c -2.159,0 -3.037,1.576 -3.037,3.521 v 0 c 0,1.944 0.877,3.521 3.037,3.521 h 23.134 c 2.16,0 3.037,-1.577 3.037,-3.521 z"
   id="path238" />
		</g>
		<g
   id="g256">
			
				<line
   fill="none"
   stroke="#cdcdcd"
   stroke-width="0.25"
   stroke-linecap="round"
   x1="253.31"
   y1="432.48199"
   x2="278.927"
   y2="432.48199"
   id="line242" />
			
				<line
   fill="none"
   stroke="#d2d2d2"
   stroke-width="0.25"
   stroke-linecap="round"
   x1="252.48399"
   y1="431.60699"
   x2="279.75299"
   y2="431.60699"
   id="line244" />
			
				<line
   fill="none"
   stroke="#dcdcdc"
   stroke-width="0.25"
   stroke-linecap="round"
   x1="251.961"
   y1="430.48199"
   x2="280.27701"
   y2="430.48199"
   id="line246" />
			
				<line
   fill="none"
   stroke="#cdcdcd"
   stroke-width="0.25"
   stroke-linecap="round"
   x1="253.31"
   y1="426.388"
   x2="278.927"
   y2="426.388"
   id="line248" />
			
				<line
   fill="none"
   stroke="#d2d2d2"
   stroke-width="0.25"
   stroke-linecap="round"
   x1="252.48399"
   y1="427.263"
   x2="279.75299"
   y2="427.263"
   id="line250" />
			
				<line
   fill="none"
   stroke="#dcdcdc"
   stroke-width="0.25"
   stroke-linecap="round"
   x1="251.961"
   y1="428.388"
   x2="280.27701"
   y2="428.388"
   id="line252" />
			
				<line
   fill="none"
   stroke="#e1e1e1"
   stroke-width="0.25"
   stroke-linecap="round"
   x1="251.67599"
   y1="429.435"
   x2="280.561"
   y2="429.435"
   id="line254" />
		</g>
	</g>
	<g
   id="g278">
		<g
   id="g264">
			<polygon
   fill="#929292"
   points="257.978,428.925 257.484,429.289 257.677,429.872 258.29,429.869 258.477,429.284 "
   id="polygon260" />
			<polygon
   fill="none"
   stroke="#a7a7a7"
   stroke-width="0.5"
   points="257.981,429.448 261.53,423.302 254.433,423.302 "
   id="polygon262" />
		</g>
		<g
   id="g270">
			<polygon
   fill="#929292"
   points="266.135,428.925 265.64,429.289 265.833,429.872 266.447,429.869 266.633,429.284 "
   id="polygon266" />
			<polygon
   fill="none"
   stroke="#a7a7a7"
   stroke-width="0.5"
   points="266.137,429.448 269.686,423.302 262.589,423.302 "
   id="polygon268" />
		</g>
		<g
   id="g276">
			<polygon
   fill="#929292"
   points="274.291,428.925 273.796,429.289 273.989,429.872 274.603,429.869 274.789,429.284 "
   id="polygon272" />
			<polygon
   fill="none"
   stroke="#a7a7a7"
   stroke-width="0.5"
   points="274.294,429.448 277.842,423.302 270.745,423.302 "
   id="polygon274" />
		</g>
	</g>
</g>
<g
   id="g328"
   transform="matrix(-1,0,0,1,599.916,0)">
	<g
   id="g306">
		<g
   id="g288">
			<path
   fill="#a7a7a7"
   d="m 343.512,415.434 c 0,2.475 -0.916,4.479 -3.172,4.479 h -24.156 c -2.256,0 -3.172,-2.005 -3.172,-4.479 v 0 c 0,-2.474 0.916,-4.479 3.172,-4.479 h 24.156 c 2.256,0.001 3.172,2.005 3.172,4.479 z"
   id="path282" />
			<path
   fill="#b6b6b6"
   d="m 343.171,415.434 c 0,2.29 -0.896,4.146 -3.101,4.146 h -23.616 c -2.203,0 -3.1,-1.856 -3.1,-4.146 v 0 c 0,-2.289 0.896,-4.146 3.1,-4.146 h 23.616 c 2.204,10e-4 3.101,1.857 3.101,4.146 z"
   id="path284" />
			<path
   fill="#bebebe"
   d="m 342.866,415.434 c 0,1.945 -0.877,3.521 -3.037,3.521 h -23.134 c -2.159,0 -3.036,-1.576 -3.036,-3.521 v 0 c 0,-1.944 0.877,-3.521 3.036,-3.521 h 23.134 c 2.16,10e-4 3.037,1.577 3.037,3.521 z"
   id="path286" />
		</g>
		<g
   id="g304">
			
				<line
   fill="none"
   stroke="#cdcdcd"
   stroke-width="0.25"
   stroke-linecap="round"
   x1="315.43399"
   y1="412.38699"
   x2="341.052"
   y2="412.38699"
   id="line290" />
			
				<line
   fill="none"
   stroke="#d2d2d2"
   stroke-width="0.25"
   stroke-linecap="round"
   x1="314.60901"
   y1="413.26199"
   x2="341.87799"
   y2="413.26199"
   id="line292" />
			
				<line
   fill="none"
   stroke="#dcdcdc"
   stroke-width="0.25"
   stroke-linecap="round"
   x1="314.086"
   y1="414.38699"
   x2="342.401"
   y2="414.38699"
   id="line294" />
			
				<line
   fill="none"
   stroke="#cdcdcd"
   stroke-width="0.25"
   stroke-linecap="round"
   x1="315.43399"
   y1="418.48099"
   x2="341.052"
   y2="418.48099"
   id="line296" />
			
				<line
   fill="none"
   stroke="#d2d2d2"
   stroke-width="0.25"
   stroke-linecap="round"
   x1="314.60901"
   y1="417.60599"
   x2="341.87799"
   y2="417.60599"
   id="line298" />
			
				<line
   fill="none"
   stroke="#dcdcdc"
   stroke-width="0.25"
   stroke-linecap="round"
   x1="314.086"
   y1="416.48099"
   x2="342.401"
   y2="416.48099"
   id="line300" />
			
				<line
   fill="none"
   stroke="#e1e1e1"
   stroke-width="0.25"
   stroke-linecap="round"
   x1="313.802"
   y1="415.43399"
   x2="342.686"
   y2="415.43399"
   id="line302" />
		</g>
	</g>
	<g
   id="g326">
		<g
   id="g312">
			<polygon
   fill="#929292"
   points="320.103,415.943 319.608,415.58 319.802,414.998 320.415,415 320.602,415.585 "
   id="polygon308" />
			<polygon
   fill="none"
   stroke="#a7a7a7"
   stroke-width="0.5"
   points="320.106,415.421 323.655,421.567 316.557,421.567 "
   id="polygon310" />
		</g>
		<g
   id="g318">
			<polygon
   fill="#929292"
   points="328.26,415.943 327.764,415.58 327.958,414.998 328.571,415 328.759,415.585 "
   id="polygon314" />
			<polygon
   fill="none"
   stroke="#a7a7a7"
   stroke-width="0.5"
   points="328.262,415.421 331.811,421.567 324.714,421.567 "
   id="polygon316" />
		</g>
		<g
   id="g324">
			<polygon
   fill="#929292"
   points="336.416,415.943 335.921,415.58 336.114,414.998 336.727,415 336.915,415.585 "
   id="polygon320" />
			<polygon
   fill="none"
   stroke="#a7a7a7"
   stroke-width="0.5"
   points="336.419,415.421 339.968,421.567 332.87,421.567 "
   id="polygon322" />
		</g>
	</g>
</g>
<g
   id="g376"
   transform="matrix(-1,0,0,1,599.916,0)">
	<g
   id="g354">
		<g
   id="g336">
			<path
   fill="#a7a7a7"
   d="m 343.512,429.435 c 0,-2.475 -0.916,-4.479 -3.172,-4.479 h -24.156 c -2.256,0 -3.172,2.005 -3.172,4.479 v 0 c 0,2.474 0.916,4.479 3.172,4.479 h 24.156 c 2.256,0 3.172,-2.005 3.172,-4.479 z"
   id="path330" />
			<path
   fill="#b6b6b6"
   d="m 343.171,429.435 c 0,-2.29 -0.896,-4.146 -3.101,-4.146 h -23.616 c -2.203,0 -3.1,1.856 -3.1,4.146 v 0 c 0,2.289 0.896,4.146 3.1,4.146 h 23.616 c 2.204,0 3.101,-1.857 3.101,-4.146 z"
   id="path332" />
			<path
   fill="#bebebe"
   d="m 342.866,429.435 c 0,-1.945 -0.877,-3.521 -3.037,-3.521 h -23.134 c -2.159,0 -3.036,1.576 -3.036,3.521 v 0 c 0,1.944 0.877,3.521 3.036,3.521 h 23.134 c 2.16,0 3.037,-1.577 3.037,-3.521 z"
   id="path334" />
		</g>
		<g
   id="g352">
			
				<line
   fill="none"
   stroke="#cdcdcd"
   stroke-width="0.25"
   stroke-linecap="round"
   x1="315.43399"
   y1="432.48199"
   x2="341.052"
   y2="432.48199"
   id="line338" />
			
				<line
   fill="none"
   stroke="#d2d2d2"
   stroke-width="0.25"
   stroke-linecap="round"
   x1="314.60901"
   y1="431.60699"
   x2="341.87799"
   y2="431.60699"
   id="line340" />
			
				<line
   fill="none"
   stroke="#dcdcdc"
   stroke-width="0.25"
   stroke-linecap="round"
   x1="314.086"
   y1="430.48199"
   x2="342.401"
   y2="430.48199"
   id="line342" />
			
				<line
   fill="none"
   stroke="#cdcdcd"
   stroke-width="0.25"
   stroke-linecap="round"
   x1="315.43399"
   y1="426.388"
   x2="341.052"
   y2="426.388"
   id="line344" />
			
				<line
   fill="none"
   stroke="#d2d2d2"
   stroke-width="0.25"
   stroke-linecap="round"
   x1="314.60901"
   y1="427.263"
   x2="341.87799"
   y2="427.263"
   id="line346" />
			
				<line
   fill="none"
   stroke="#dcdcdc"
   stroke-width="0.25"
   stroke-linecap="round"
   x1="314.086"
   y1="428.388"
   x2="342.401"
   y2="428.388"
   id="line348" />
			
				<line
   fill="none"
   stroke="#e1e1e1"
   stroke-width="0.25"
   stroke-linecap="round"
   x1="313.802"
   y1="429.435"
   x2="342.686"
   y2="429.435"
   id="line350" />
		</g>
	</g>
	<g
   id="g374">
		<g
   id="g360">
			<polygon
   fill="#929292"
   points="320.103,428.925 319.608,429.289 319.802,429.872 320.415,429.869 320.602,429.284 "
   id="polygon356" />
			<polygon
   fill="none"
   stroke="#a7a7a7"
   stroke-width="0.5"
   points="320.106,429.448 323.655,423.302 316.557,423.302 "
   id="polygon358" />
		</g>
		<g
   id="g366">
			<polygon
   fill="#929292"
   points="328.26,428.925 327.764,429.289 327.958,429.872 328.571,429.869 328.759,429.284 "
   id="polygon362" />
			<polygon
   fill="none"
   stroke="#a7a7a7"
   stroke-width="0.5"
   points="328.262,429.448 331.811,423.302 324.714,423.302 "
   id="polygon364" />
		</g>
		<g
   id="g372">
			<polygon
   fill="#929292"
   points="336.416,428.925 335.921,429.289 336.114,429.872 336.727,429.869 336.915,429.284 "
   id="polygon368" />
			<polygon
   fill="none"
   stroke="#a7a7a7"
   stroke-width="0.5"
   points="336.419,429.448 339.968,423.302 332.87,423.302 "
   id="polygon370" />
		</g>
	</g>
</g>
<g
   id="g424"
   transform="matrix(-1,0,0,1,599.916,0)">
	<g
   id="g402">
		<g
   id="g384">
			<path
   fill="#a7a7a7"
   d="m 312.45,415.434 c 0,2.475 -0.916,4.479 -3.172,4.479 h -24.156 c -2.255,0 -3.172,-2.005 -3.172,-4.479 v 0 c 0,-2.474 0.917,-4.479 3.172,-4.479 h 24.156 c 2.256,0.001 3.172,2.005 3.172,4.479 z"
   id="path378" />
			<path
   fill="#b6b6b6"
   d="m 312.108,415.434 c 0,2.29 -0.896,4.146 -3.101,4.146 h -23.616 c -2.204,0 -3.1,-1.856 -3.1,-4.146 v 0 c 0,-2.289 0.896,-4.146 3.1,-4.146 h 23.616 c 2.205,10e-4 3.101,1.857 3.101,4.146 z"
   id="path380" />
			<path
   fill="#bebebe"
   d="m 311.803,415.434 c 0,1.945 -0.877,3.521 -3.037,3.521 h -23.134 c -2.159,0 -3.037,-1.576 -3.037,-3.521 v 0 c 0,-1.944 0.877,-3.521 3.037,-3.521 h 23.134 c 2.161,10e-4 3.037,1.577 3.037,3.521 z"
   id="path382" />
		</g>
		<g
   id="g400">
			
				<line
   fill="none"
   stroke="#cdcdcd"
   stroke-width="0.25"
   stroke-linecap="round"
   x1="284.37201"
   y1="412.38699"
   x2="309.98901"
   y2="412.38699"
   id="line386" />
			
				<line
   fill="none"
   stroke="#d2d2d2"
   stroke-width="0.25"
   stroke-linecap="round"
   x1="283.547"
   y1="413.26199"
   x2="310.815"
   y2="413.26199"
   id="line388" />
			
				<line
   fill="none"
   stroke="#dcdcdc"
   stroke-width="0.25"
   stroke-linecap="round"
   x1="283.02301"
   y1="414.38699"
   x2="311.33899"
   y2="414.38699"
   id="line390" />
			
				<line
   fill="none"
   stroke="#cdcdcd"
   stroke-width="0.25"
   stroke-linecap="round"
   x1="284.37201"
   y1="418.48099"
   x2="309.98901"
   y2="418.48099"
   id="line392" />
			
				<line
   fill="none"
   stroke="#d2d2d2"
   stroke-width="0.25"
   stroke-linecap="round"
   x1="283.547"
   y1="417.60599"
   x2="310.815"
   y2="417.60599"
   id="line394" />
			
				<line
   fill="none"
   stroke="#dcdcdc"
   stroke-width="0.25"
   stroke-linecap="round"
   x1="283.02301"
   y1="416.48099"
   x2="311.33899"
   y2="416.48099"
   id="line396" />
			
				<line
   fill="none"
   stroke="#e1e1e1"
   stroke-width="0.25"
   stroke-linecap="round"
   x1="282.73901"
   y1="415.43399"
   x2="311.62399"
   y2="415.43399"
   id="line398" />
		</g>
	</g>
	<g
   id="g422">
		<g
   id="g408">
			<polygon
   fill="#929292"
   points="289.041,415.943 288.546,415.58 288.739,414.998 289.353,415 289.539,415.585 "
   id="polygon404" />
			<polygon
   fill="none"
   stroke="#a7a7a7"
   stroke-width="0.5"
   points="289.044,415.421 292.592,421.567 285.495,421.567 "
   id="polygon406" />
		</g>
		<g
   id="g414">
			<polygon
   fill="#929292"
   points="297.197,415.943 296.702,415.58 296.895,414.998 297.509,415 297.696,415.585 "
   id="polygon410" />
			<polygon
   fill="none"
   stroke="#a7a7a7"
   stroke-width="0.5"
   points="297.2,415.421 300.749,421.567 293.652,421.567 "
   id="polygon412" />
		</g>
		<g
   id="g420">
			<polygon
   fill="#929292"
   points="305.353,415.943 304.858,415.58 305.052,414.998 305.665,415 305.852,415.585 "
   id="polygon416" />
			<polygon
   fill="none"
   stroke="#a7a7a7"
   stroke-width="0.5"
   points="305.356,415.421 308.905,421.567 301.807,421.567 "
   id="polygon418" />
		</g>
	</g>
</g>
<g
   id="g472"
   transform="matrix(-1,0,0,1,599.916,0)">
	<g
   id="g450">
		<g
   id="g432">
			<path
   fill="#a7a7a7"
   d="m 312.45,429.435 c 0,-2.475 -0.916,-4.479 -3.172,-4.479 h -24.156 c -2.255,0 -3.172,2.005 -3.172,4.479 v 0 c 0,2.474 0.917,4.479 3.172,4.479 h 24.156 c 2.256,0 3.172,-2.005 3.172,-4.479 z"
   id="path426" />
			<path
   fill="#b6b6b6"
   d="m 312.108,429.435 c 0,-2.29 -0.896,-4.146 -3.101,-4.146 h -23.616 c -2.204,0 -3.1,1.856 -3.1,4.146 v 0 c 0,2.289 0.896,4.146 3.1,4.146 h 23.616 c 2.205,0 3.101,-1.857 3.101,-4.146 z"
   id="path428" />
			<path
   fill="#bebebe"
   d="m 311.803,429.435 c 0,-1.945 -0.877,-3.521 -3.037,-3.521 h -23.134 c -2.159,0 -3.037,1.576 -3.037,3.521 v 0 c 0,1.944 0.877,3.521 3.037,3.521 h 23.134 c 2.161,0 3.037,-1.577 3.037,-3.521 z"
   id="path430" />
		</g>
		<g
   id="g448">
			
				<line
   fill="none"
   stroke="#cdcdcd"
   stroke-width="0.25"
   stroke-linecap="round"
   x1="284.37201"
   y1="432.48199"
   x2="309.98901"
   y2="432.48199"
   id="line434" />
			
				<line
   fill="none"
   stroke="#d2d2d2"
   stroke-width="0.25"
   stroke-linecap="round"
   x1="283.547"
   y1="431.60699"
   x2="310.815"
   y2="431.60699"
   id="line436" />
			
				<line
   fill="none"
   stroke="#dcdcdc"
   stroke-width="0.25"
   stroke-linecap="round"
   x1="283.02301"
   y1="430.48199"
   x2="311.33899"
   y2="430.48199"
   id="line438" />
			
				<line
   fill="none"
   stroke="#cdcdcd"
   stroke-width="0.25"
   stroke-linecap="round"
   x1="284.37201"
   y1="426.388"
   x2="309.98901"
   y2="426.388"
   id="line440" />
			
				<line
   fill="none"
   stroke="#d2d2d2"
   stroke-width="0.25"
   stroke-linecap="round"
   x1="283.547"
   y1="427.263"
   x2="310.815"
   y2="427.263"
   id="line442" />
			
				<line
   fill="none"
   stroke="#dcdcdc"
   stroke-width="0.25"
   stroke-linecap="round"
   x1="283.02301"
   y1="428.388"
   x2="311.33899"
   y2="428.388"
   id="line444" />
			
				<line
   fill="none"
   stroke="#e1e1e1"
   stroke-width="0.25"
   stroke-linecap="round"
   x1="282.73901"
   y1="429.435"
   x2="311.62399"
   y2="429.435"
   id="line446" />
		</g>
	</g>
	<g
   id="g470">
		<g
   id="g456">
			<polygon
   fill="#929292"
   points="289.041,428.925 288.546,429.289 288.739,429.872 289.353,429.869 289.539,429.284 "
   id="polygon452" />
			<polygon
   fill="none"
   stroke="#a7a7a7"
   stroke-width="0.5"
   points="289.044,429.448 292.592,423.302 285.495,423.302 "
   id="polygon454" />
		</g>
		<g
   id="g462">
			<polygon
   fill="#929292"
   points="297.197,428.925 296.702,429.289 296.895,429.872 297.509,429.869 297.696,429.284 "
   id="polygon458" />
			<polygon
   fill="none"
   stroke="#a7a7a7"
   stroke-width="0.5"
   points="297.2,429.448 300.749,423.302 293.652,423.302 "
   id="polygon460" />
		</g>
		<g
   id="g468">
			<polygon
   fill="#929292"
   points="305.353,428.925 304.858,429.289 305.052,429.872 305.665,429.869 305.852,429.284 "
   id="polygon464" />
			<polygon
   fill="none"
   stroke="#a7a7a7"
   stroke-width="0.5"
   points="305.356,429.448 308.905,423.302 301.807,423.302 "
   id="polygon466" />
		</g>
	</g>
</g>
</svg>
